# xmcd
#
# Track frame offsets:
#	150
#	12801
#	31608
#	45956
#	62327
#	82479
#	98236
#	116877
#	122070
#	138197
#	139527
#	157225
#	175309
#	192589
#	210713
#	225895
#	244061
#	263589
#	281573
#	296443
#
# Disc length: 4054 seconds
#
# Revision: 2
# Processed by: cddbd v1.5.2PL0 Copyright (c) Steve Scherf et al.
# Submitted via: audiograbber 1.83.01
#
DISCID=150fd414
DTITLE=Blumio - Yellow Album
DYEAR=2009
DGENRE=JapsenSoul
TTITLE0=Intro
TTITLE1=Die Kuh Macht Muh
TTITLE2=Ich Mag Dich Irgendwie
TTITLE3=Lass ma über Haie reden
TTITLE4=Antigewaltsong
TTITLE5=Das Busenlied
TTITLE6=Hey Mr Nazi
TTITLE7=Skit (Blumio beim Psychater Pt1)
TTITLE8=Vom Kind zum Mann
TTITLE9=Skit (Blumio beim Psychater Pt2)
TTITLE10=Zukunftsangst!
TTITLE11=Alles ist Gelb feat. Zemine
TTITLE12=H.D.G.D.L.
TTITLE13=Udo Nirgends
TTITLE14=Ich pups dich an
TTITLE15=Rosenkrieg feat. Zemine
TTITLE16=Sandmännchen
TTITLE17=Es gibt kein zurück
TTITLE18=Deutschland duck dich!
TTITLE19=Outro
EXTD=
EXTT0=
EXTT1=
EXTT2=
EXTT3=
EXTT4=
EXTT5=
EXTT6=
EXTT7=
EXTT8=
EXTT9=
EXTT10=
EXTT11=
EXTT12=
EXTT13=
EXTT14=
EXTT15=
EXTT16=
EXTT17=
EXTT18=
EXTT19=
PLAYORDER=
